<?xml version="1.0" encoding="UTF-8" ?>
<!DOCTYPE svg PUBLIC "-//W3C//DTD SVG 1.1//EN" "http://www.w3.org/Graphics/SVG/1.1/DTD/svg11.dtd">
<svg width="306pt" height="204pt" viewBox="0 0 306 204" version="1.1" xmlns="http://www.w3.org/2000/svg">
<g id="#fffffeff">
<path fill="#fffffe" opacity="1.00" d=" M 0.00 0.00 L 306.00 0.00 L 306.00 204.00 L 0.00 204.00 L 0.00 0.00 M 139.97 12.00 C 139.39 12.03 138.23 12.09 137.65 12.13 C 135.13 12.55 132.62 13.19 130.28 14.21 C 128.19 14.07 123.42 13.98 123.29 16.21 C 114.74 17.22 105.67 22.23 99.95 28.31 C 98.40 27.21 95.00 29.15 96.34 31.09 C 96.06 31.35 95.50 31.85 95.23 32.11 C 88.98 34.65 82.04 42.07 80.35 48.39 C 78.83 47.53 78.37 49.81 77.54 50.59 C 65.74 68.57 61.77 90.60 64.30 111.79 C 62.32 120.55 55.76 127.89 55.31 137.30 C 54.40 150.16 56.56 166.48 66.87 175.17 C 69.55 178.09 72.35 181.21 75.82 183.17 C 77.41 184.45 79.48 185.73 81.59 185.68 C 84.49 188.45 89.20 189.49 93.18 189.91 C 107.76 195.35 121.01 185.88 134.23 182.75 C 137.40 183.76 140.62 184.27 143.98 184.01 C 146.37 186.32 155.97 185.36 158.00 184.01 C 158.73 183.94 160.20 183.78 160.93 183.71 C 165.81 186.72 170.22 190.94 175.79 192.64 C 178.52 194.15 181.64 195.55 184.77 195.63 C 186.63 196.42 188.62 197.47 190.70 196.79 C 192.49 199.72 201.65 198.26 203.00 197.04 C 225.19 195.22 244.54 176.25 246.99 154.03 C 249.34 151.61 248.35 142.09 247.02 139.98 C 247.56 128.65 238.83 120.72 235.67 110.81 C 235.73 110.36 235.86 109.46 235.92 109.01 C 238.34 108.13 236.49 103.18 236.73 100.73 C 236.70 99.13 236.65 95.93 236.62 94.33 C 236.54 91.79 238.42 86.88 235.79 85.85 L 235.53 84.97 C 236.53 83.82 236.98 80.35 235.01 80.19 C 229.99 55.60 213.69 32.51 190.72 21.96 C 184.37 17.04 174.15 14.69 165.83 13.09 C 165.59 10.76 161.50 11.18 160.11 12.40 C 156.11 9.96 144.13 10.37 139.97 12.00 Z" />
</g>
<g id="#d6d390ff">
<path fill="#d6d390" opacity="1.00" d=" M 139.97 12.00 C 144.13 10.37 156.11 9.96 160.11 12.40 C 158.31 12.25 156.51 12.19 154.72 12.17 C 149.80 12.02 144.89 11.98 139.97 12.00 Z" />
</g>
<g id="#b7a402ff">
<path fill="#b7a402" opacity="1.00" d=" M 130.28 14.21 C 132.62 13.19 135.13 12.55 137.65 12.13 C 144.95 16.48 157.39 12.42 165.05 18.92 C 201.99 39.46 206.91 92.95 186.44 126.95 C 188.06 131.17 182.04 131.56 181.16 135.11 C 176.20 145.42 165.99 151.41 158.67 159.71 C 145.17 168.10 128.07 175.94 112.20 170.92 C 108.65 167.72 104.79 164.81 101.91 160.96 C 109.11 168.48 118.37 165.98 127.52 165.70 C 128.03 163.44 129.41 161.86 131.84 161.75 C 139.08 159.83 144.48 153.98 151.46 151.45 C 151.97 147.19 156.45 145.88 159.33 143.42 C 160.34 139.37 164.48 137.86 167.33 135.32 C 170.30 127.70 174.80 120.82 178.57 113.60 C 188.14 87.02 186.78 56.49 169.34 33.81 C 169.04 32.75 168.63 31.75 168.10 30.81 C 156.38 21.79 142.27 12.73 126.77 15.90 C 127.94 15.34 129.11 14.77 130.28 14.21 Z" />
</g>
<g id="#a79503ff">
<path fill="#a79503" opacity="1.00" d=" M 137.65 12.13 C 138.23 12.09 139.39 12.03 139.97 12.00 C 144.89 11.98 149.80 12.02 154.72 12.17 C 181.95 15.42 202.47 38.64 208.79 64.40 C 211.90 81.12 210.43 98.40 205.68 114.65 C 201.31 121.50 197.90 128.86 193.79 135.85 C 185.48 146.21 175.68 155.57 165.76 164.78 C 153.13 173.17 137.22 180.16 121.89 177.01 C 120.82 176.72 119.74 176.44 118.66 176.19 C 116.82 175.07 115.01 173.89 113.12 172.83 C 112.79 172.62 112.13 172.20 111.80 171.99 L 112.20 170.92 C 128.07 175.94 145.17 168.10 158.67 159.71 C 165.99 151.41 176.20 145.42 181.16 135.11 C 182.04 131.56 188.06 131.17 186.44 126.95 C 206.91 92.95 201.99 39.46 165.05 18.92 C 157.39 12.42 144.95 16.48 137.65 12.13 Z" />
</g>
<g id="#938306ff">
<path fill="#938306" opacity="1.00" d=" M 154.72 12.17 C 156.51 12.19 158.31 12.25 160.11 12.40 C 161.54 12.58 164.40 12.92 165.83 13.09 C 174.15 14.69 184.37 17.04 190.72 21.96 C 188.93 25.49 198.68 26.49 194.04 28.78 C 199.68 28.33 200.42 34.84 204.22 37.41 C 220.59 59.81 224.94 91.60 214.47 117.68 C 214.77 119.43 210.55 120.91 213.78 121.29 C 211.32 123.12 208.76 125.14 208.25 128.38 C 207.18 129.59 206.03 130.72 204.88 131.86 C 200.56 135.85 195.80 139.39 191.88 143.80 C 188.72 145.95 185.23 148.17 183.78 151.89 C 181.61 151.98 180.04 153.66 179.85 155.78 C 178.50 157.07 177.18 158.40 175.90 159.76 C 168.23 163.03 165.19 172.65 158.85 177.83 C 147.42 182.95 132.91 183.25 121.89 177.01 C 137.22 180.16 153.13 173.17 165.76 164.78 C 175.68 155.57 185.48 146.21 193.79 135.85 C 197.90 128.86 201.31 121.50 205.68 114.65 C 210.43 98.40 211.90 81.12 208.79 64.40 C 202.47 38.64 181.95 15.42 154.72 12.17 Z" />
</g>
<g id="#bab66fff">
<path fill="#bab66f" opacity="1.00" d=" M 160.11 12.40 C 161.50 11.18 165.59 10.76 165.83 13.09 C 164.40 12.92 161.54 12.58 160.11 12.40 Z" />
</g>
<g id="#cecf7aff">
<path fill="#cecf7a" opacity="1.00" d=" M 123.29 16.21 C 123.42 13.98 128.19 14.07 130.28 14.21 C 129.11 14.77 127.94 15.34 126.77 15.90 C 125.61 16.00 124.45 16.11 123.29 16.21 Z" />
</g>
<g id="#c5b102ff">
<path fill="#c5b102" opacity="1.00" d=" M 126.77 15.90 C 142.27 12.73 156.38 21.79 168.10 30.81 C 168.63 31.75 169.04 32.75 169.34 33.81 C 186.78 56.49 188.14 87.02 178.57 113.60 C 174.80 120.82 170.30 127.70 167.33 135.32 C 164.48 137.86 160.34 139.37 159.33 143.42 C 156.45 145.88 151.97 147.19 151.46 151.45 C 144.48 153.98 139.08 159.83 131.84 161.75 C 129.41 161.86 128.03 163.44 127.52 165.70 C 118.37 165.98 109.11 168.48 101.91 160.96 C 100.98 160.56 100.04 160.18 99.10 159.82 C 97.49 156.88 94.93 154.63 92.85 152.04 C 96.86 155.07 101.89 157.28 105.89 159.53 C 121.36 157.72 134.51 148.96 145.68 138.65 C 151.68 130.92 155.89 121.87 162.73 114.74 C 168.79 92.07 174.92 64.39 161.21 42.82 C 151.69 26.88 132.54 15.07 113.74 20.85 C 116.79 19.04 120.09 17.73 123.29 16.21 C 124.45 16.11 125.61 16.00 126.77 15.90 Z" />
</g>
<g id="#d8d176ff">
<path fill="#d8d176" opacity="1.00" d=" M 99.95 28.31 C 105.67 22.23 114.74 17.22 123.29 16.21 C 120.09 17.73 116.79 19.04 113.74 20.85 C 109.54 22.84 105.35 24.94 101.68 27.82 C 101.25 27.94 100.38 28.19 99.95 28.31 Z" />
</g>
<g id="#d0bc02ff">
<path fill="#d0bc02" opacity="1.00" d=" M 113.74 20.85 C 132.54 15.07 151.69 26.88 161.21 42.82 C 174.92 64.39 168.79 92.07 162.73 114.74 C 155.89 121.87 151.68 130.92 145.68 138.65 C 134.51 148.96 121.36 157.72 105.89 159.53 C 101.89 157.28 96.86 155.07 92.85 152.04 C 89.96 149.40 87.27 146.56 84.44 143.86 C 83.05 141.80 81.51 139.85 80.06 137.83 C 84.17 139.54 86.71 145.41 91.68 144.44 C 92.89 145.66 93.96 147.95 95.43 145.68 C 100.51 146.34 108.41 149.93 111.19 144.00 C 113.92 139.02 122.47 143.01 124.19 137.13 C 126.02 132.79 131.85 132.07 133.62 127.61 C 133.99 123.89 138.09 118.87 131.76 119.22 C 141.57 119.30 148.37 109.60 146.99 100.23 C 151.16 96.76 147.44 89.28 152.60 87.36 C 153.33 81.59 153.91 75.81 154.78 70.07 C 149.91 61.22 152.21 50.81 144.65 43.48 C 139.33 32.47 127.28 26.55 115.61 24.82 C 116.25 22.04 113.08 23.53 111.50 23.73 C 109.67 27.15 104.94 26.64 101.68 27.82 C 105.35 24.94 109.54 22.84 113.74 20.85 Z" />
</g>
<g id="#7e6e0aff">
<path fill="#7e6e0a" opacity="1.00" d=" M 190.72 21.96 C 213.69 32.51 229.99 55.60 235.01 80.19 C 234.82 81.80 234.85 83.46 235.53 84.97 L 235.79 85.85 C 236.01 88.68 236.05 91.54 236.62 94.33 C 236.65 95.93 236.70 99.13 236.73 100.73 C 236.42 103.48 236.12 106.24 235.92 109.01 C 235.86 109.46 235.73 110.36 235.67 110.81 C 235.22 115.93 228.85 112.87 225.77 115.57 C 223.55 116.64 221.63 118.23 219.97 120.03 C 217.90 121.51 215.77 122.91 213.77 124.49 C 211.92 125.77 210.12 127.12 208.25 128.38 C 208.76 125.14 211.32 123.12 213.78 121.29 C 210.55 120.91 214.77 119.43 214.47 117.68 C 224.94 91.60 220.59 59.81 204.22 37.41 C 200.42 34.84 199.68 28.33 194.04 28.78 C 198.68 26.49 188.93 25.49 190.72 21.96 Z" />
</g>
<g id="#d9c605ff">
<path fill="#d9c605" opacity="1.00" d=" M 111.50 23.73 C 113.08 23.53 116.25 22.04 115.61 24.82 C 127.28 26.55 139.33 32.47 144.65 43.48 C 152.21 50.81 149.91 61.22 154.78 70.07 C 153.91 75.81 153.33 81.59 152.60 87.36 C 147.44 89.28 151.16 96.76 146.99 100.23 C 143.31 88.26 129.91 89.14 120.33 85.67 C 116.31 82.60 118.80 75.96 123.65 75.56 C 130.10 72.82 135.02 78.00 137.11 83.06 C 141.49 84.13 145.20 83.76 144.16 79.03 C 144.91 70.97 136.17 67.65 129.75 66.18 C 131.93 66.00 136.70 66.69 135.90 63.14 C 135.03 60.96 130.59 56.40 135.01 55.86 C 137.52 54.96 133.91 52.20 133.57 50.56 C 135.41 44.11 126.22 46.79 127.27 40.75 C 120.58 33.70 111.72 29.63 101.95 31.44 C 95.43 34.41 89.68 39.79 84.62 44.98 L 83.72 44.78 C 86.95 40.03 91.35 36.29 95.23 32.11 C 95.50 31.85 96.06 31.35 96.34 31.09 C 97.99 30.90 99.17 29.69 99.95 28.31 C 100.38 28.19 101.25 27.94 101.68 27.82 C 104.94 26.64 109.67 27.15 111.50 23.73 Z" />
</g>
<g id="#e0da77ff">
<path fill="#e0da77" opacity="1.00" d=" M 96.34 31.09 C 95.00 29.15 98.40 27.21 99.95 28.31 C 99.17 29.69 97.99 30.90 96.34 31.09 Z" />
</g>
<g id="#e2ce02ff">
<path fill="#e2ce02" opacity="1.00" d=" M 84.62 44.98 C 89.68 39.79 95.43 34.41 101.95 31.44 C 111.72 29.63 120.58 33.70 127.27 40.75 C 126.22 46.79 135.41 44.11 133.57 50.56 C 133.91 52.20 137.52 54.96 135.01 55.86 C 130.59 56.40 135.03 60.96 135.90 63.14 C 136.70 66.69 131.93 66.00 129.75 66.18 C 126.91 66.04 124.12 66.61 121.34 67.07 C 122.06 62.80 117.34 69.52 117.36 65.36 C 120.99 64.19 117.64 59.29 121.78 59.83 C 116.69 54.44 113.55 46.15 104.84 45.69 C 101.62 47.80 98.69 42.15 96.25 40.16 C 96.39 42.74 94.14 43.95 91.85 43.27 C 88.91 42.13 87.49 46.84 84.62 44.98 Z" />
</g>
<g id="#e6db77ff">
<path fill="#e6db77" opacity="1.00" d=" M 80.35 48.39 C 82.04 42.07 88.98 34.65 95.23 32.11 C 91.35 36.29 86.95 40.03 83.72 44.78 C 82.63 46.01 81.52 47.23 80.35 48.39 Z" />
</g>
<g id="#ebd504ff">
<path fill="#ebd504" opacity="1.00" d=" M 96.25 40.16 C 98.69 42.15 101.62 47.80 104.84 45.69 C 113.55 46.15 116.69 54.44 121.78 59.83 C 117.64 59.29 120.99 64.19 117.36 65.36 C 117.34 69.52 122.06 62.80 121.34 67.07 C 112.25 68.79 105.23 82.66 111.76 89.18 C 114.03 95.28 121.86 95.91 127.33 95.93 L 127.94 96.03 C 129.21 99.73 136.17 97.80 136.49 102.61 C 138.42 107.02 133.14 109.34 131.05 112.34 C 127.61 111.79 124.18 111.12 120.68 111.28 C 116.66 109.96 116.08 105.42 114.88 101.97 C 109.52 96.71 106.83 104.20 109.78 108.15 C 110.50 109.43 111.30 110.65 112.08 111.89 C 112.15 112.64 112.29 114.13 112.36 114.87 C 105.77 125.34 95.17 133.68 82.57 132.00 C 82.63 129.44 76.20 126.50 77.72 131.16 C 74.30 127.80 73.26 122.47 68.73 120.09 C 60.67 96.09 66.98 69.32 80.35 48.39 C 81.52 47.23 82.63 46.01 83.72 44.78 L 84.62 44.98 C 87.49 46.84 88.91 42.13 91.85 43.27 C 94.14 43.95 96.39 42.74 96.25 40.16 Z" />
</g>
<g id="#e4dc6bff">
<path fill="#e4dc6b" opacity="1.00" d=" M 77.54 50.59 C 78.37 49.81 78.83 47.53 80.35 48.39 C 66.98 69.32 60.67 96.09 68.73 120.09 C 69.88 122.70 71.73 125.09 71.88 128.05 C 67.47 123.78 65.39 117.69 64.30 111.79 C 61.77 90.60 65.74 68.57 77.54 50.59 Z" />
</g>
<g id="#c3b638ff">
<path fill="#c3b638" opacity="1.00" d=" M 121.34 67.07 C 124.12 66.61 126.91 66.04 129.75 66.18 C 136.17 67.65 144.91 70.97 144.16 79.03 L 143.30 78.93 C 140.65 64.36 114.79 64.30 111.59 78.65 C 110.54 82.13 111.08 85.72 111.76 89.18 C 105.23 82.66 112.25 68.79 121.34 67.07 Z" />
</g>
<g id="#140f05ff">
<path fill="#140f05" opacity="1.00" d=" M 111.59 78.65 C 114.79 64.30 140.65 64.36 143.30 78.93 C 144.21 83.19 138.24 83.20 137.15 79.79 C 135.70 77.46 134.13 74.45 131.25 73.73 C 128.49 73.27 125.36 72.15 122.80 73.79 C 118.40 75.61 114.61 80.70 117.69 85.30 C 125.25 92.33 141.29 87.56 144.42 99.64 C 149.84 117.69 121.66 124.54 112.08 111.89 C 111.30 110.65 110.50 109.43 109.78 108.15 C 108.04 102.73 110.58 101.25 114.88 101.97 C 116.08 105.42 116.66 109.96 120.68 111.28 C 123.73 113.22 127.66 113.57 131.05 112.34 C 133.87 111.77 136.57 110.53 138.27 108.11 C 140.25 106.23 140.40 102.50 138.19 100.87 C 135.85 97.56 131.79 96.38 127.94 96.03 L 127.33 95.93 C 121.92 94.16 116.27 92.83 111.76 89.18 C 111.08 85.72 110.54 82.13 111.59 78.65 Z" />
</g>
<g id="#564f07ff">
<path fill="#564f07" opacity="1.00" d=" M 122.80 73.79 C 125.36 72.15 128.49 73.27 131.25 73.73 C 128.43 73.72 125.62 73.74 122.80 73.79 Z" />
</g>
<g id="#c1b337ff">
<path fill="#c1b337" opacity="1.00" d=" M 117.69 85.30 C 114.61 80.70 118.40 75.61 122.80 73.79 C 125.62 73.74 128.43 73.72 131.25 73.73 C 134.13 74.45 135.70 77.46 137.15 79.79 C 137.14 80.61 137.12 82.25 137.11 83.06 C 135.02 78.00 130.10 72.82 123.65 75.56 C 118.80 75.96 116.31 82.60 120.33 85.67 C 129.91 89.14 143.31 88.26 146.99 100.23 C 148.37 109.60 141.57 119.30 131.76 119.22 C 124.94 120.72 118.01 118.84 112.36 114.87 C 112.29 114.13 112.15 112.64 112.08 111.89 C 121.66 124.54 149.84 117.69 144.42 99.64 C 141.29 87.56 125.25 92.33 117.69 85.30 Z" />
</g>
<g id="#60550dff">
<path fill="#60550d" opacity="1.00" d=" M 143.30 78.93 L 144.16 79.03 C 145.20 83.76 141.49 84.13 137.11 83.06 C 137.12 82.25 137.14 80.61 137.15 79.79 C 138.24 83.20 144.21 83.19 143.30 78.93 Z" />
</g>
<g id="#b5aa78ff">
<path fill="#b5aa78" opacity="1.00" d=" M 235.01 80.19 C 236.98 80.35 236.53 83.82 235.53 84.97 C 234.85 83.46 234.82 81.80 235.01 80.19 Z" />
</g>
<g id="#b8b17eff">
<path fill="#b8b17e" opacity="1.00" d=" M 235.79 85.85 C 238.42 86.88 236.54 91.79 236.62 94.33 C 236.05 91.54 236.01 88.68 235.79 85.85 Z" />
</g>
<g id="#b8ab38ff">
<path fill="#b8ab38" opacity="1.00" d=" M 111.76 89.18 C 116.27 92.83 121.92 94.16 127.33 95.93 C 121.86 95.91 114.03 95.28 111.76 89.18 Z" />
</g>
<g id="#c1b437ff">
<path fill="#c1b437" opacity="1.00" d=" M 127.94 96.03 C 131.79 96.38 135.85 97.56 138.19 100.87 C 138.21 102.68 138.25 106.30 138.27 108.11 C 136.57 110.53 133.87 111.77 131.05 112.34 C 133.14 109.34 138.42 107.02 136.49 102.61 C 136.17 97.80 129.21 99.73 127.94 96.03 Z" />
</g>
<g id="#93861eff">
<path fill="#93861e" opacity="1.00" d=" M 109.78 108.15 C 106.83 104.20 109.52 96.71 114.88 101.97 C 110.58 101.25 108.04 102.73 109.78 108.15 Z" />
</g>
<g id="#6c651fff">
<path fill="#6c651f" opacity="1.00" d=" M 138.19 100.87 C 140.40 102.50 140.25 106.23 138.27 108.11 C 138.25 106.30 138.21 102.68 138.19 100.87 Z" />
</g>
<g id="#ada673ff">
<path fill="#ada673" opacity="1.00" d=" M 235.92 109.01 C 236.12 106.24 236.42 103.48 236.73 100.73 C 236.49 103.18 238.34 108.13 235.92 109.01 Z" />
</g>
<g id="#a3983cff">
<path fill="#a3983c" opacity="1.00" d=" M 120.68 111.28 C 124.18 111.12 127.61 111.79 131.05 112.34 C 127.66 113.57 123.73 113.22 120.68 111.28 Z" />
</g>
<g id="#7f7f7fff">
<path fill="#7f7f7f" opacity="1.00" d=" M 225.77 115.57 C 228.85 112.87 235.22 115.93 235.67 110.81 C 238.83 120.72 247.56 128.65 247.02 139.98 C 247.00 144.66 247.03 149.34 246.99 154.03 C 244.54 176.25 225.19 195.22 203.00 197.04 C 198.89 196.94 194.79 196.86 190.70 196.79 C 209.46 195.34 226.58 183.35 234.21 166.13 C 240.20 151.47 240.30 134.21 233.06 119.97 C 232.54 116.32 228.62 116.07 225.77 115.57 Z" />
</g>
<g id="#e4ecefff">
<path fill="#e4ecef" opacity="1.00" d=" M 64.30 111.79 C 65.39 117.69 67.47 123.78 71.88 128.05 C 74.86 133.82 78.13 141.38 84.44 143.86 C 84.38 145.13 84.29 146.40 84.07 147.66 C 83.16 151.52 82.83 155.43 83.07 159.40 C 81.60 158.10 79.48 158.53 77.96 159.47 C 65.29 165.39 75.64 144.63 67.78 147.76 C 66.09 155.00 67.30 162.77 67.22 170.21 C 67.10 171.86 66.98 173.52 66.87 175.17 C 56.56 166.48 54.40 150.16 55.31 137.30 C 55.76 127.89 62.32 120.55 64.30 111.79 Z" />
</g>
<g id="#dec803ff">
<path fill="#dec803" opacity="1.00" d=" M 112.36 114.87 C 118.01 118.84 124.94 120.72 131.76 119.22 C 138.09 118.87 133.99 123.89 133.62 127.61 C 131.85 132.07 126.02 132.79 124.19 137.13 C 122.47 143.01 113.92 139.02 111.19 144.00 C 108.41 149.93 100.51 146.34 95.43 145.68 C 93.96 147.95 92.89 145.66 91.68 144.44 C 86.71 145.41 84.17 139.54 80.06 137.83 C 77.08 134.87 76.01 129.59 71.88 128.05 C 71.73 125.09 69.88 122.70 68.73 120.09 C 73.26 122.47 74.30 127.80 77.72 131.16 C 76.20 126.50 82.63 129.44 82.57 132.00 C 95.17 133.68 105.77 125.34 112.36 114.87 Z" />
</g>
<g id="#8f9191ff">
<path fill="#8f9191" opacity="1.00" d=" M 219.97 120.03 C 221.63 118.23 223.55 116.64 225.77 115.57 C 228.62 116.07 232.54 116.32 233.06 119.97 C 240.30 134.21 240.20 151.47 234.21 166.13 C 226.58 183.35 209.46 195.34 190.70 196.79 C 188.62 197.47 186.63 196.42 184.77 195.63 C 214.89 195.22 240.48 165.64 234.59 135.51 C 232.99 129.38 231.32 114.70 221.76 119.41 C 221.31 119.57 220.42 119.88 219.97 120.03 Z" />
</g>
<g id="#9da1a4ff">
<path fill="#9da1a4" opacity="1.00" d=" M 221.76 119.41 C 231.32 114.70 232.99 129.38 234.59 135.51 C 240.48 165.64 214.89 195.22 184.77 195.63 C 181.64 195.55 178.52 194.15 175.79 192.64 C 186.73 193.93 196.91 189.93 206.70 185.81 C 205.08 184.31 204.85 182.20 204.91 180.10 C 204.07 176.04 207.96 167.43 199.79 169.17 C 210.66 165.24 204.25 178.76 206.08 183.97 C 214.50 185.85 207.96 172.11 210.23 167.77 C 210.53 170.56 210.97 173.39 211.15 176.22 C 211.49 178.37 209.41 184.46 212.56 182.52 C 224.67 171.36 231.67 154.75 230.76 138.30 C 229.13 131.86 228.57 122.55 221.76 119.41 Z" />
</g>
<g id="#acb1b4ff">
<path fill="#acb1b4" opacity="1.00" d=" M 219.97 120.03 C 220.42 119.88 221.31 119.57 221.76 119.41 C 228.57 122.55 229.13 131.86 230.76 138.30 C 231.67 154.75 224.67 171.36 212.56 182.52 C 209.41 184.46 211.49 178.37 211.15 176.22 C 221.71 164.77 226.01 148.44 223.93 133.10 C 221.79 129.11 218.41 125.41 213.77 124.49 C 215.77 122.91 217.90 121.51 219.97 120.03 Z" />
</g>
<g id="#bbc2c4ff">
<path fill="#bbc2c4" opacity="1.00" d=" M 208.25 128.38 C 210.12 127.12 211.92 125.77 213.77 124.49 C 218.41 125.41 221.79 129.11 223.93 133.10 C 226.01 148.44 221.71 164.77 211.15 176.22 C 210.97 173.39 210.53 170.56 210.23 167.77 C 210.07 162.87 209.94 157.99 210.01 153.10 C 217.47 149.16 211.11 139.77 215.78 134.05 C 212.11 133.47 208.51 132.63 204.88 131.86 C 206.03 130.72 207.18 129.59 208.25 128.38 Z" />
</g>
<g id="#d6d173ff">
<path fill="#d6d173" opacity="1.00" d=" M 71.88 128.05 C 76.01 129.59 77.08 134.87 80.06 137.83 C 81.51 139.85 83.05 141.80 84.44 143.86 C 78.13 141.38 74.86 133.82 71.88 128.05 Z" />
</g>
<g id="#cfd6d9ff">
<path fill="#cfd6d9" opacity="1.00" d=" M 191.88 143.80 C 195.80 139.39 200.56 135.85 204.88 131.86 C 208.51 132.63 212.11 133.47 215.78 134.05 C 211.11 139.77 217.47 149.16 210.01 153.10 C 208.69 153.05 207.36 153.04 206.04 153.06 C 203.07 156.11 208.69 167.64 199.77 165.30 C 196.51 165.14 193.28 165.15 190.03 164.94 C 188.83 161.46 192.11 153.93 188.98 152.05 C 188.20 152.00 186.66 151.91 185.88 151.87 L 184.77 151.80 C 187.31 149.29 189.99 146.85 191.88 143.80 Z" />
</g>
<g id="#cbcbcbff">
<path fill="#cbcbcb" opacity="1.00" d=" M 247.02 139.98 C 248.35 142.09 249.34 151.61 246.99 154.03 C 247.03 149.34 247.00 144.66 247.02 139.98 Z" />
<path fill="#cbcbcb" opacity="1.00" d=" M 190.70 196.79 C 194.79 196.86 198.89 196.94 203.00 197.04 C 201.65 198.26 192.49 199.72 190.70 196.79 Z" />
</g>
<g id="#c5bd6aff">
<path fill="#c5bd6a" opacity="1.00" d=" M 84.44 143.86 C 87.27 146.56 89.96 149.40 92.85 152.04 C 94.93 154.63 97.49 156.88 99.10 159.82 C 98.58 159.85 97.53 159.90 97.00 159.93 C 93.88 156.40 90.56 153.05 87.45 149.51 L 86.87 148.88 C 86.07 148.23 85.13 147.83 84.07 147.66 C 84.29 146.40 84.38 145.13 84.44 143.86 Z" />
</g>
<g id="#b7b177ff">
<path fill="#b7b177" opacity="1.00" d=" M 183.78 151.89 C 185.23 148.17 188.72 145.95 191.88 143.80 C 189.99 146.85 187.31 149.29 184.77 151.80 L 183.78 151.89 Z" />
</g>
<g id="#0e0f12ff">
<path fill="#0e0f12" opacity="1.00" d=" M 67.78 147.76 C 75.64 144.63 65.29 165.39 77.96 159.47 C 79.24 159.45 81.80 159.42 83.07 159.40 C 85.10 156.52 81.27 148.15 86.87 148.88 L 87.45 149.51 C 86.84 158.32 87.10 167.15 86.93 175.98 C 86.22 175.98 84.79 176.00 84.07 176.01 C 82.86 172.44 86.05 165.21 83.02 163.04 C 82.32 162.95 80.93 162.77 80.24 162.67 C 78.15 163.40 71.89 160.27 71.07 163.03 C 71.10 163.72 71.16 165.09 71.18 165.78 C 70.94 169.73 72.95 176.58 66.87 175.17 C 66.98 173.52 67.10 171.86 67.22 170.21 C 68.41 162.78 68.00 155.24 67.78 147.76 Z" />
</g>
<g id="#515457ff">
<path fill="#515457" opacity="1.00" d=" M 67.22 170.21 C 67.30 162.77 66.09 155.00 67.78 147.76 C 68.00 155.24 68.41 162.78 67.22 170.21 Z" />
</g>
<g id="#545653ff">
<path fill="#545653" opacity="1.00" d=" M 83.07 159.40 C 82.83 155.43 83.16 151.52 84.07 147.66 C 85.13 147.83 86.07 148.23 86.87 148.88 C 81.27 148.15 85.10 156.52 83.07 159.40 Z" />
</g>
<g id="#c4cacdff">
<path fill="#c4cacd" opacity="1.00" d=" M 87.45 149.51 C 90.56 153.05 93.88 156.40 97.00 159.93 C 104.95 166.78 97.63 177.97 88.76 179.43 C 86.93 181.37 81.77 178.71 83.57 182.36 C 82.54 183.98 72.19 177.27 75.82 183.17 C 72.35 181.21 69.55 178.09 66.87 175.17 C 72.95 176.58 70.94 169.73 71.18 165.78 C 73.04 168.60 69.23 178.69 76.83 174.53 C 80.46 173.77 82.91 177.40 82.73 171.76 C 83.28 172.99 82.05 176.20 84.07 176.01 C 84.79 176.00 86.22 175.98 86.93 175.98 C 87.10 167.15 86.84 158.32 87.45 149.51 Z" />
</g>
<g id="#b4ac72ff">
<path fill="#b4ac72" opacity="1.00" d=" M 179.85 155.78 C 180.04 153.66 181.61 151.98 183.78 151.89 C 183.40 153.92 181.83 155.36 179.85 155.78 Z" />
</g>
<g id="#d6dddeff">
<path fill="#d6ddde" opacity="1.00" d=" M 183.78 151.89 L 184.77 151.80 C 185.18 161.89 184.97 171.99 184.92 182.08 C 184.09 176.56 178.10 182.54 174.97 181.04 C 169.05 183.50 165.80 177.57 165.84 172.85 C 168.98 168.33 172.60 164.17 175.90 159.76 C 177.18 158.40 178.50 157.07 179.85 155.78 C 181.83 155.36 183.40 153.92 183.78 151.89 Z" />
</g>
<g id="#808286ff">
<path fill="#808286" opacity="1.00" d=" M 184.77 151.80 L 185.88 151.87 C 186.07 161.98 185.97 172.10 186.02 182.22 L 186.00 183.21 C 185.73 182.93 185.19 182.37 184.92 182.08 C 184.97 171.99 185.18 161.89 184.77 151.80 Z" />
</g>
<g id="#08090cff">
<path fill="#08090c" opacity="1.00" d=" M 185.88 151.87 C 186.66 151.91 188.20 152.00 188.98 152.05 C 190.17 155.51 186.88 163.10 190.03 164.94 C 193.28 165.15 196.51 165.14 199.77 165.30 C 209.70 170.10 205.15 158.41 206.04 153.06 C 207.36 153.04 208.69 153.05 210.01 153.10 C 209.94 157.99 210.07 162.87 210.23 167.77 C 207.96 172.11 214.50 185.85 206.08 183.97 C 204.25 178.76 210.66 165.24 199.79 169.17 C 198.21 169.00 196.62 168.81 195.05 168.60 C 193.76 168.60 191.17 168.59 189.88 168.59 C 187.32 172.40 192.39 182.21 186.02 182.22 C 185.97 172.10 186.07 161.98 185.88 151.87 Z" />
</g>
<g id="#515356ff">
<path fill="#515356" opacity="1.00" d=" M 188.98 152.05 C 192.11 153.93 188.83 161.46 190.03 164.94 C 186.88 163.10 190.17 155.51 188.98 152.05 Z" />
</g>
<g id="#878a8dff">
<path fill="#878a8d" opacity="1.00" d=" M 199.77 165.30 C 208.69 167.64 203.07 156.11 206.04 153.06 C 205.15 158.41 209.70 170.10 199.77 165.30 Z" />
</g>
<g id="#64666dff">
<path fill="#64666d" opacity="1.00" d=" M 77.96 159.47 C 79.48 158.53 81.60 158.10 83.07 159.40 C 81.80 159.42 79.24 159.45 77.96 159.47 Z" />
</g>
<g id="#b2b7b8ff">
<path fill="#b2b7b8" opacity="1.00" d=" M 97.00 159.93 C 97.53 159.90 98.58 159.85 99.10 159.82 C 100.69 164.62 106.42 166.79 109.27 170.99 C 107.26 178.35 99.93 181.89 93.19 184.13 C 91.74 187.85 85.37 184.60 81.59 185.68 C 79.48 185.73 77.41 184.45 75.82 183.17 C 72.19 177.27 82.54 183.98 83.57 182.36 C 81.77 178.71 86.93 181.37 88.76 179.43 C 97.63 177.97 104.95 166.78 97.00 159.93 Z" />
</g>
<g id="#b3ac5eff">
<path fill="#b3ac5e" opacity="1.00" d=" M 99.10 159.82 C 100.04 160.18 100.98 160.56 101.91 160.96 C 104.79 164.81 108.65 167.72 112.20 170.92 L 111.80 171.99 C 110.95 171.67 110.10 171.33 109.27 170.99 C 106.42 166.79 100.69 164.62 99.10 159.82 Z" />
</g>
<g id="#7d7222ff">
<path fill="#7d7222" opacity="1.00" d=" M 158.85 177.83 C 165.19 172.65 168.23 163.03 175.90 159.76 C 172.60 164.17 168.98 168.33 165.84 172.85 C 164.27 175.07 162.59 177.27 161.57 179.81 C 161.20 181.08 161.08 182.40 160.93 183.71 C 160.20 183.78 158.73 183.94 158.00 184.01 C 153.32 184.01 148.66 183.98 143.98 184.01 C 140.62 184.27 137.40 183.76 134.23 182.75 C 128.96 181.89 121.31 181.80 118.66 176.19 C 119.74 176.44 120.82 176.72 121.89 177.01 C 132.91 183.25 147.42 182.95 158.85 177.83 Z" />
</g>
<g id="#828486ff">
<path fill="#828486" opacity="1.00" d=" M 71.07 163.03 C 71.89 160.27 78.15 163.40 80.24 162.67 C 77.17 162.76 74.13 162.94 71.07 163.03 Z" />
</g>
<g id="#d5dbe2ff">
<path fill="#d5dbe2" opacity="1.00" d=" M 71.07 163.03 C 74.13 162.94 77.17 162.76 80.24 162.67 C 80.93 162.77 82.32 162.95 83.02 163.04 C 82.94 165.93 82.92 168.86 82.73 171.76 C 82.91 177.40 80.46 173.77 76.83 174.53 C 69.23 178.69 73.04 168.60 71.18 165.78 C 71.16 165.09 71.10 163.72 71.07 163.03 Z" />
</g>
<g id="#4c4d52ff">
<path fill="#4c4d52" opacity="1.00" d=" M 83.02 163.04 C 86.05 165.21 82.86 172.44 84.07 176.01 C 82.05 176.20 83.28 172.99 82.73 171.76 C 82.92 168.86 82.94 165.93 83.02 163.04 Z" />
</g>
<g id="#54585aff">
<path fill="#54585a" opacity="1.00" d=" M 189.88 168.59 C 191.17 168.59 193.76 168.60 195.05 168.60 C 193.47 169.46 191.37 169.86 189.88 168.59 Z" />
</g>
<g id="#434448ff">
<path fill="#434448" opacity="1.00" d=" M 186.02 182.22 C 192.39 182.21 187.32 172.40 189.88 168.59 C 188.31 172.90 193.99 184.55 186.00 183.21 L 186.02 182.22 Z" />
</g>
<g id="#c4ccceff">
<path fill="#c4ccce" opacity="1.00" d=" M 189.88 168.59 C 191.37 169.86 193.47 169.46 195.05 168.60 C 196.62 168.81 198.21 169.00 199.79 169.17 C 207.96 167.43 204.07 176.04 204.91 180.10 C 204.20 179.37 203.52 177.67 202.51 179.06 C 190.68 187.69 171.10 193.20 161.57 179.81 C 162.59 177.27 164.27 175.07 165.84 172.85 C 165.80 177.57 169.05 183.50 174.97 181.04 C 178.10 182.54 184.09 176.56 184.92 182.08 C 185.19 182.37 185.73 182.93 186.00 183.21 C 193.99 184.55 188.31 172.90 189.88 168.59 Z" />
</g>
<g id="#9ba0a1ff">
<path fill="#9ba0a1" opacity="1.00" d=" M 109.27 170.99 C 110.10 171.33 110.95 171.67 111.80 171.99 C 112.13 172.20 112.79 172.62 113.12 172.83 C 119.31 180.49 105.76 185.27 100.57 187.52 C 99.14 190.70 87.19 185.93 93.18 189.91 C 89.20 189.49 84.49 188.45 81.59 185.68 C 85.37 184.60 91.74 187.85 93.19 184.13 C 99.93 181.89 107.26 178.35 109.27 170.99 Z" />
</g>
<g id="#81807cff">
<path fill="#81807c" opacity="1.00" d=" M 113.12 172.83 C 115.01 173.89 116.82 175.07 118.66 176.19 C 121.31 181.80 128.96 181.89 134.23 182.75 C 121.01 185.88 107.76 195.35 93.18 189.91 C 87.19 185.93 99.14 190.70 100.57 187.52 C 105.76 185.27 119.31 180.49 113.12 172.83 Z" />
</g>
<g id="#b2b9bbff">
<path fill="#b2b9bb" opacity="1.00" d=" M 202.51 179.06 C 203.52 177.67 204.20 179.37 204.91 180.10 C 204.85 182.20 205.08 184.31 206.70 185.81 C 196.91 189.93 186.73 193.93 175.79 192.64 C 170.22 190.94 165.81 186.72 160.93 183.71 C 161.08 182.40 161.20 181.08 161.57 179.81 C 171.10 193.20 190.68 187.69 202.51 179.06 Z" />
</g>
<g id="#c0bb95ff">
<path fill="#c0bb95" opacity="1.00" d=" M 143.98 184.01 C 148.66 183.98 153.32 184.01 158.00 184.01 C 155.97 185.36 146.37 186.32 143.98 184.01 Z" />
</g>
</svg>
